<svg width="20" height="20" viewBox="0 0 20 20" fill="none" xmlns="http://www.w3.org/2000/svg">
<path d="M12.3511 3.35919L1.3468 14.3643C1.29144 14.4198 1.25146 14.4899 1.23242 14.5653L0.0127046 19.4609C-0.0237807 19.6083 0.0195258 19.765 0.127078 19.8726C0.208456 19.954 0.31934 19.999 0.432762 19.999C0.467502 19.999 0.503035 19.9947 0.537617 19.986L5.43331 18.7661C5.50961 18.7471 5.57893 18.7073 5.6343 18.6519L16.6395 7.64764L12.3511 3.35919Z" fill="#999999"/>
<path d="M19.3657 1.8587L18.1408 0.633746C17.3221 -0.184952 15.8952 -0.184159 15.0775 0.633746L13.577 2.13424L17.8653 6.42253L19.3657 4.92204C19.7747 4.51324 20 3.96914 20 3.39045C20 2.81176 19.7747 2.26765 19.3657 1.8587Z" fill="#999999"/>
</svg>
