<svg width="40" height="40" viewBox="0 0 40 40" fill="none" xmlns="http://www.w3.org/2000/svg">
<path d="M20 0C8.97156 0 0 8.97156 0 20C0 31.0284 8.97156 40 20 40C31.0284 40 40 31.0284 40 20C40 8.97156 31.0284 0 20 0ZM28.75 21.6666H21.6666V28.75C21.6666 29.6701 20.9201 30.4166 20 30.4166C19.0799 30.4166 18.3334 29.6701 18.3334 28.75V21.6666H11.25C10.3299 21.6666 9.58344 20.9201 9.58344 20C9.58344 19.0799 10.3299 18.3334 11.25 18.3334H18.3334V11.25C18.3334 10.3299 19.0799 9.58344 20 9.58344C20.9201 9.58344 21.6666 10.3299 21.6666 11.25V18.3334H28.75C29.6701 18.3334 30.4166 19.0799 30.4166 20C30.4166 20.9201 29.6701 21.6666 28.75 21.6666V21.6666Z" fill="#444446"/>
</svg>
